Coordinates
version=1
nRows=21
nColumns=38
inDegrees=no

Units are S.I. units (second, meters, Newtons, ...)
If the header above contains a line with 'inDegrees', this indicates whether rotational values are in degrees (yes) or radians (no).

endheader
time	pelvis_tilt	pelvis_list	pelvis_rotation	pelvis_tx	pelvis_ty	pelvis_tz	hip_flexion_r	hip_adduction_r	hip_rotation_r	knee_angle_r	ankle_angle_r	subtalar_angle_r	mtp_angle_r	hip_flexion_l	hip_adduction_l	hip_rotation_l	knee_angle_l	ankle_angle_l	subtalar_angle_l	mtp_angle_l	lumbar_extension	lumbar_bending	lumbar_rotation	arm_flex_r	arm_add_r	arm_rot_r	elbow_flex_r	pro_sup_r	wrist_flex_r	wrist_dev_r	arm_flex_l	arm_add_l	arm_rot_l	elbow_flex_l	pro_sup_l	wrist_flex_l	wrist_dev_l
3.26	-0.0508668	-0.0627295	0.083351	0.78937	0.933766	-0.319368	0.714188	0.0397421	-0.156327	-0.490317	0.101272	0.0256835	-4.45709e-05	-0.254341	-0.118147	-0.0770687	-1.28152	-0.568818	0.00136458	-9.88808e-05	-0.283084	0.128774	-0.208127	-1.04262	-0.277352	-0.222639	1.90001	1.55439	0.0998652	0.0738132	-0.0955922	-0.556863	0.0652495	2.26879	2.01838	0.0997978	-0.0973566
3.27	-0.0413558	-0.0727937	0.0632548	0.790544	0.928498	-0.317416	0.685094	0.0619689	-0.166805	-0.533158	0.085354	0.0256835	-4.45709e-05	-0.21546	-0.140879	-0.102306	-1.42947	-0.545682	0.00136458	-9.88808e-05	-0.294892	0.13505	-0.168573	-1.01869	-0.297053	-0.219917	1.90639	1.53643	0.0998652	0.0738132	-0.131101	-0.541239	0.0691129	2.21404	2.03205	0.0997978	-0.0973566
3.28	-0.0326186	-0.0880329	0.0403857	0.791172	0.923224	-0.315351	0.66092	0.0906953	-0.173228	-0.593561	0.0805604	0.0256835	-4.45709e-05	-0.170834	-0.166781	-0.126903	-1.57078	-0.521421	0.00136458	-9.88808e-05	-0.307312	0.145541	-0.1234	-0.985526	-0.321198	-0.216043	1.90912	1.51959	0.0998652	0.0738132	-0.165701	-0.524107	0.0699991	2.15716	2.05122	0.0997978	-0.0973566
3.29	-0.0250212	-0.106512	0.0160835	0.791172	0.918629	-0.313305	0.639442	0.123837	-0.173504	-0.664655	0.0912927	0.0256835	-4.45709e-05	-0.118868	-0.19229	-0.146522	-1.70282	-0.496377	0.00136458	-9.88808e-05	-0.320213	0.158313	-0.0752227	-0.941804	-0.349154	-0.209877	1.90704	1.50456	0.0998652	0.0738132	-0.199393	-0.505908	0.0673525	2.10029	2.07823	0.0997978	-0.0973566
3.3	-0.0188194	-0.125964	-0.00808217	0.790458	0.915031	-0.311374	0.61761	0.158625	-0.166564	-0.738818	0.119479	0.0256835	-4.45709e-05	-0.0581398	-0.21401	-0.15803	-1.82327	-0.470432	0.00136458	-9.88808e-05	-0.333344	0.171191	-0.0270121	-0.886834	-0.380108	-0.200284	1.89976	1.49177	0.0998652	0.0738132	-0.232568	-0.487181	0.0607781	2.04546	2.11443	0.0997978	-0.0973566
3.31	-0.0141977	-0.143968	-0.0304694	0.788999	0.912336	-0.309689	0.592155	0.191908	-0.152414	-0.80858	0.164083	0.0256835	-4.45709e-05	0.0122573	-0.229099	-0.159899	-1.93	-0.443237	0.00136458	-9.88808e-05	-0.346251	0.182025	0.0182521	-0.820801	-0.413058	-0.186427	1.88796	1.48143	0.0998652	0.0738132	-0.265857	-0.468567	0.0501587	1.9945	2.15957	0.0997978	-0.0973566
3.32	-0.0112191	-0.158202	-0.0496161	0.786869	0.910406	-0.308454	0.560247	0.220509	-0.131995	-0.867466	0.221365	0.0256835	-4.45709e-05	0.0924931	-0.235547	-0.152307	-2.02102	-0.414402	0.00136458	-9.88808e-05	-0.358218	0.188909	0.057997	-0.744909	-0.446809	-0.168037	1.87336	1.47349	0.0998652	0.0738132	-0.299924	-0.450787	0.035741	1.94887	2.2115	0.0997978	-0.0973566
3.33	-0.00990691	-0.166767	-0.0644844	0.784255	0.909246	-0.307765	0.519918	0.241616	-0.106921	-0.910552	0.285627	0.0256835	-4.45709e-05	0.18185	-0.232376	-0.13699	-2.09448	-0.383666	0.00136458	-9.88808e-05	-0.36836	0.190346	0.0904611	-0.661321	-0.480037	-0.145554	1.85854	1.4676	0.0998652	0.0738132	-0.335301	-0.434588	0.0181376	1.90954	2.26626	0.0997978	-0.0973566
3.34	-0.0102684	-0.168435	-0.0746689	0.781415	0.908924	-0.307507	0.470229	0.253129	-0.0791663	-0.934631	0.350072	0.0256835	-4.45709e-05	0.278712	-0.219772	-0.116883	-2.14881	-0.350986	0.00136458	-9.88808e-05	-0.375755	0.185358	0.114967	-0.572893	-0.511443	-0.120063	1.84648	1.46308	0.0998652	0.0738132	-0.372323	-0.420635	-0.00181196	1.87708	2.31864	0.0997978	-0.0973566
3.35	-0.0123612	-0.162745	-0.0804807	0.778642	0.909465	-0.307492	0.411193	0.253893	-0.0507904	-0.938092	0.407549	0.0256835	-4.45709e-05	0.380657	-0.199071	-0.0955862	-2.18281	-0.316553	0.00136458	-9.88808e-05	-0.379627	0.173543	0.131982	-0.482752	-0.539958	-0.0930499	1.84003	1.45894	0.0998652	0.0738132	-0.411166	-0.409376	-0.0232606	1.85165	2.36285	0.0997978	-0.0973566
3.36	-0.0162207	-0.149973	-0.0829304	0.776221	0.910817	-0.307574	0.34364	0.243753	-0.023712	-0.920707	0.451158	0.0256835	-4.45709e-05	0.484693	-0.172559	-0.0767676	-2.19577	-0.280725	0.00136458	-9.88808e-05	-0.379437	0.155059	0.142939	-0.393848	-0.564944	-0.0660521	1.8414	1.45403	0.0998652	0.0738132	-0.451925	-0.40089	-0.0456022	1.83318	2.39339	0.0997978	-0.0973566
3.37	-0.021856	-0.131051	-0.0835389	0.774395	0.912876	-0.307642	0.269066	0.223421	0.000400522	-0.883488	0.474799	0.0256835	-4.45709e-05	0.587558	-0.143072	-0.0635766	-2.18749	-0.243901	0.00136458	-9.88808e-05	-0.374948	0.130531	0.149874	-0.308609	-0.586286	-0.0403611	1.85182	1.4473	0.0998652	0.0738132	-0.494661	-0.394799	-0.0686437	1.82145	2.40612	0.0997978	-0.0973566
3.38	-0.0292297	-0.10738	-0.0840422	0.773335	0.915541	-0.307612	0.189499	0.194287	0.0201464	-0.828623	0.473697	0.0256835	-4.45709e-05	0.686014	-0.113549	-0.0581752	-2.15832	-0.206415	0.00136458	-9.88808e-05	-0.366253	0.100989	0.155041	-0.228802	-0.60436	-0.0168907	1.87141	1.43817	0.0998652	0.0738132	-0.539338	-0.390276	-0.0925949	1.8161	2.3991	0.0997978	-0.0973566
3.39	-0.038184	-0.0806721	-0.0860656	0.773121	0.918709	-0.307453	0.107363	0.158233	0.0343944	-0.759462	0.44489	0.0256835	-4.45709e-05	0.777096	-0.0866176	-0.0614491	-2.10898	-0.16847	0.00136458	-9.88808e-05	-0.35376	0.0678113	0.16054	-0.15559	-0.619881	0.00379759	1.89938	1.42678	0.0998652	0.0738132	-0.585698	-0.386183	-0.117903	1.81661	2.37295	0.0997978	-0.0973566
3.4	-0.0484343	-0.0528105	-0.090815	0.773703	0.92228	-0.307173	0.0253326	0.117486	0.0423273	-0.680493	0.38767	0.0256835	-4.45709e-05	0.858259	-0.0642964	-0.0729346	-2.04047	-0.130179	0.00136458	-9.88808e-05	-0.338175	0.0326648	0.168025	-0.0897027	-0.633707	0.0213783	1.93428	1.41408	0.0998652	0.0738132	-0.633143	-0.381282	-0.145019	1.82227	2.33094	0.0997978	-0.0973566
3.41	-0.0595737	-0.0257018	-0.0988582	0.774907	0.926161	-0.306796	-0.0538501	0.074515	0.043552	-0.597246	0.303884	0.0256835	-4.45709e-05	0.927445	-0.0478032	-0.0909674	-1.95391	-0.0916699	0.00136458	-9.88808e-05	-0.320463	-0.00257897	0.178493	-0.0316334	-0.64664	0.0356363	1.97428	1.40167	0.0998652	0.0738132	-0.680692	-0.37447	-0.17419	1.83222	2.27847	0.0997978	-0.0973566
3.42	-0.0710896	-0.00113126	-0.110035	0.776501	0.930236	-0.306339	-0.127561	0.0319236	0.0382558	-0.51606	0.198005	0.0256835	-4.45709e-05	0.983098	-0.0374929	-0.11302	-1.85047	-0.0532176	0.00136458	-9.88808e-05	-0.301771	-0.0359714	0.192178	0.0182068	-0.659261	0.0463713	2.01749	1.39143	0.0998652	0.0738132	-0.727025	-0.364994	-0.205311	1.84553	2.22218	0.0997978	-0.0973566
3.43	-0.0823866	0.0193682	-0.123508	0.778236	0.934356	-0.305799	-0.193508	-0.00767446	0.0273569	-0.443691	0.0768431	0.0256835	-4.45709e-05	1.02414	-0.0329171	-0.136158	-1.73141	-0.0153241	0.00136458	-9.88808e-05	-0.283356	-0.065659	0.208564	0.0593913	-0.671826	0.0533498	2.06208	1.38504	0.0998652	0.0738132	-0.77061	-0.352603	-0.237858	1.86124	2.1687	0.0997978	-0.0973566
3.44	-0.0928209	0.0346294	-0.137944	0.779895	0.938355	-0.305167	-0.249949	-0.0418274	0.0125652	-0.386749	-0.0511263	0.0256835	-4.45709e-05	1.04994	-0.0329965	-0.157526	-1.59828	0.0212666	0.00136458	-9.88808e-05	-0.266489	-0.0900718	0.22652	0.0914446	-0.684233	0.0563062	2.10637	1.38357	0.0998652	0.0738132	-0.809879	-0.337619	-0.270912	1.87851	2.12363	0.0997978	-0.0973566
3.45	-0.101736	0.043929	-0.151767	0.781347	0.94208	-0.304445	-0.295847	-0.06846	-0.00372179	-0.351074	-0.17675	0.0256835	-4.45709e-05	1.06033	-0.0362711	-0.174769	-1.45316	0.0555925	0.00136458	-9.88808e-05	-0.252364	-0.108098	0.244519	0.113869	-0.69605	0.055003	2.14883	1.38733	0.0998652	0.0738132	-0.843411	-0.320911	-0.303265	1.8966	2.09086	0.0997978	-0.0973566
3.46	-0.108485	0.0470369	-0.163444	0.782594	0.945409	-0.30364	-0.330944	-0.0861023	-0.0187455	-0.341147	-0.291326	0.0256835	-4.45709e-05	1.05563	-0.0411781	-0.186337	-1.29906	0.0865071	0.00136458	-9.88808e-05	-0.241987	-0.119205	0.26089	0.126222	-0.706624	0.0493489	2.18803	1.39581	0.0998652	0.0738132	-0.870098	-0.303774	-0.333567	1.91493	2.07218	0.0997978	-0.0973566
